<svg width="27" height="24" viewBox="0 0 27 24" fill="none" xmlns="http://www.w3.org/2000/svg">
<path d="M1 1H5L8 18H24M8 12.6667H23.59C23.7056 12.6667 23.8177 12.6267 23.9072 12.5535C23.9966 12.4802 24.0579 12.3782 24.0806 12.2648L25.8806 3.26479C25.8951 3.19222 25.8934 3.11733 25.8755 3.04552C25.8575 2.97372 25.8239 2.90679 25.7769 2.84956C25.73 2.79234 25.6709 2.74625 25.604 2.71462C25.5371 2.68299 25.464 2.66662 25.39 2.66667H6M10 22C10 22.5523 9.55228 23 9 23C8.44772 23 8 22.5523 8 22C8 21.4477 8.44772 21 9 21C9.55228 21 10 21.4477 10 22ZM24 22C24 22.5523 23.5523 23 23 23C22.4477 23 22 22.5523 22 22C22 21.4477 22.4477 21 23 21C23.5523 21 24 21.4477 24 22Z" stroke="black" stroke-width="1.5" stroke-linecap="round" stroke-linejoin="round"/>
</svg>
