<!-- icon666.com - MILLIONS vector ICONS FREE --><svg id="Glyph" enable-background="new 0 0 32 32" viewBox="0 0 32 32" xmlns="http://www.w3.org/2000/svg"><path id="XMLID_323_" d="m20.722 24.964c.096.096.057.264-.073.306-7.7 2.466-16.032-1.503-18.594-8.942-.072-.21-.072-.444 0-.655.743-2.157 1.99-4.047 3.588-5.573.061-.058.158-.056.217.003l4.302 4.302c.03.03.041.072.031.113-1.116 4.345 2.948 8.395 7.276 7.294.049-.013.095-.004.131.032.358.357 2.445 2.443 3.122 3.12z"></path><path id="XMLID_325_" d="m24.68 23.266c2.406-1.692 4.281-4.079 5.266-6.941.072-.21.072-.44 0-.65-1.992-5.787-7.596-9.675-13.946-9.675-2.479 0-4.841.597-6.921 1.665l-5.372-5.372c-.391-.391-1.023-.391-1.414 0s-.391 1.023 0 1.414l26 26c.391.391 1.023.391 1.414 0s.391-1.023 0-1.414zm-8.68-13.266c3.309 0 6 2.691 6 6 0 1.294-.416 2.49-1.115 3.471l-8.356-8.356c.981-.699 2.177-1.115 3.471-1.115z"></path></svg>