<!-- icon666.com - MILLIONS vector ICONS FREE --><svg id="Icons" enable-background="new 0 0 64 64" viewBox="0 0 64 64" xmlns="http://www.w3.org/2000/svg"><g><path d="m45.4 43.6c-7.4-7.4-19.4-7.4-26.8 0-1 1-1.9 2.2-2.7 3.4 8.2 8.9 22.1 9.4 31 1.2.4-.4.8-.8 1.2-1.2-.7-1.3-1.6-2.4-2.7-3.4z"></path><path d="m32 36c7 0 13.6 3.5 17.5 9.4 7.4-9.6 5.6-23.5-4.1-30.8s-23.5-5.6-30.9 4c-6 7.9-6 18.9 0 26.8 3.9-5.9 10.5-9.4 17.5-9.4zm-9-13c0-5 4-9 9-9s9 4 9 9v2c0 5-4 9-9 9s-9-4-9-9z"></path><path d="m32 32c3.9 0 7-3.1 7-7v-2c0-3.9-3.1-7-7-7s-7 3.1-7 7v2c0 3.9 3.1 7 7 7z"></path><path d="m32 6c-14.4 0-26 11.6-26 26s11.6 26 26 26 26-11.6 26-26-11.6-26-26-26zm0 50c-13.3 0-24-10.7-24-24s10.7-24 24-24 24 10.7 24 24c0 13.2-10.8 24-24 24z"></path></g></svg>