<!-- icon666.com - MILLIONS vector ICONS FREE --><svg id="Layer_1" enable-background="new 0 0 512 512" viewBox="0 0 512 512" xmlns="http://www.w3.org/2000/svg"><g><path d="m151.566 176.733h176.734c13.877 0 25.167-11.29 25.167-25.167v-151.566h-227.068v151.566c0 13.877 11.29 25.167 25.167 25.167zm137.634-97.466c0-8.284 6.716-15 15-15s15 6.716 15 15v48.2c0 8.284-6.716 15-15 15s-15-6.716-15-15z"></path><path d="m360.433 303.134h-208.867c-13.877 0-25.167 11.289-25.167 25.166v183.7h259.2v-183.7c.001-13.877-11.289-25.166-25.166-25.166z"></path><path d="m507.606 100.794-96.4-96.4c-2.813-2.814-6.628-4.394-10.606-4.394h-17.133v151.566c0 30.419-24.748 55.167-55.167 55.167h-176.734c-30.419 0-55.167-24.748-55.167-55.167v-151.566h-41.233c-30.418 0-55.166 24.748-55.166 55.167v401.666c0 30.419 24.748 55.167 55.166 55.167h41.233v-183.7c0-30.419 24.748-55.166 55.167-55.166h208.866c30.419 0 55.167 24.747 55.167 55.166v183.7h41.233c30.42 0 55.168-24.748 55.168-55.167v-345.433c0-3.978-1.58-7.794-4.394-10.606z"></path></g></svg>